#N canvas 142 97 613 428 10;
#X obj 34 55 unpack f f f f f f f;
#X obj 52 204 nc_mono_synth~;
#X obj 34 228 nc_mono_synth~;
#X obj 72 180 nc_mono_synth~;
#X obj 91 154 nc_mono_synth~;
#X obj 111 130 nc_mono_synth~;
#X obj 131 108 nc_mono_synth~;
#X obj 150 84 nc_mono_synth~;
#X obj 21 257 *~;
#X obj 223 213 inlet;
#X text 224 192 amplitude;
#X obj 21 292 outlet~;
#X text 83 23 midi note data (from osc);
#X obj 34 23 inlet;
#X msg 223 239 0.1;
#X connect 0 0 2 0;
#X connect 0 1 1 0;
#X connect 0 2 3 0;
#X connect 0 3 4 0;
#X connect 0 4 5 0;
#X connect 0 5 6 0;
#X connect 0 6 7 0;
#X connect 1 0 8 0;
#X connect 2 0 8 0;
#X connect 3 0 8 0;
#X connect 4 0 8 0;
#X connect 5 0 8 0;
#X connect 6 0 8 0;
#X connect 7 0 8 0;
#X connect 8 0 11 0;
#X connect 9 0 14 0;
#X connect 13 0 0 0;
#X connect 14 0 8 1;
