#N canvas 367 194 840 490 10;
#X declare -lib mrpeach;
#X obj 182 142 import mrpeach;
#X obj 209 224 unpackOSC;
#X obj 209 262 routeOSC /com/notioncollective;
#X obj 209 312 outlet;
#X obj 209 187 udpreceive 9002;
#X obj 437 280 inlet;
#X obj 405 364 print;
#X obj 405 311 spigot;
#X text 436 260 enable/disable debug mode;
#X connect 1 0 2 0;
#X connect 2 0 3 0;
#X connect 2 0 7 0;
#X connect 4 0 1 0;
#X connect 5 0 7 1;
#X connect 7 0 6 0;
