#N canvas 0 22 520 315 10;
#X obj -25 167 inlet~;
#X obj -23 312 *~;
#X obj 138 246 osc~;
#X obj 138 218 mtof;
#X obj 141 167 hsl 128 15 0 127 0 0 empty empty empty -2 -8 0 10 -262144
-1 -1 0 1;
#X obj -23 372 outlet~;
#X text 136 146 ring frequency;
#X obj 45 98 inlet;
#X connect 0 0 1 0;
#X connect 1 0 5 0;
#X connect 2 0 1 1;
#X connect 3 0 2 0;
#X connect 4 0 3 0;
#X connect 7 0 4 0;
#X coords 0 -1 1 1 200 100 1 100 100;
