#N canvas 960 22 960 950 10;
#X obj 259 312 inlet~;
#X obj 263 507 outlet~;
#X obj 261 366 delwrite~ notiondelay 1000;
#X obj 263 457 delread~ notiondelay 500;
#X obj 205 146 vsl 15 128 0 1 0 0 empty empty empty 0 -9 0 10 -262144
-1 -1 6500 0;
#X obj 135 145 vsl 15 128 0 1000 0 0 empty empty empty 0 -9 0 10 -262144
-1 -1 5347 0;
#X text 190 123 feedback;
#X text 111 123 delay time;
#X obj 41 110 inlet;
#X obj 283 106 inlet;
#X obj 165 420 *~;
#X connect 0 0 2 0;
#X connect 3 0 1 0;
#X connect 3 0 10 0;
#X connect 4 0 10 1;
#X connect 5 0 3 0;
#X connect 8 0 5 0;
#X connect 9 0 4 0;
#X connect 10 0 2 0;
#X coords 0 -1 1 1 150 200 1 100 100;
